<?xml version="1.0" encoding="utf-8"?>
<!-- Generator: Adobe Illustrator 15.0.0, SVG Export Plug-In . SVG Version: 6.00 Build 0)  -->
<!DOCTYPE svg PUBLIC "-//W3C//DTD SVG 1.1//EN" "http://www.w3.org/Graphics/SVG/1.1/DTD/svg11.dtd">
<svg version="1.1" id="Layer_1" xmlns="http://www.w3.org/2000/svg" xmlns:xlink="http://www.w3.org/1999/xlink" x="0px" y="0px"
	 width="96px" height="96px" viewBox="0 0 96 96" enable-background="new 0 0 96 96" xml:space="preserve">
<g>
	<path fill-rule="evenodd" clip-rule="evenodd" fill="#53275A" d="M78.948,14.569c-7.205,0-14.409,0-21.616,0
		c-0.062-0.306,0.218-0.637,0.382-0.857C60.976,9.304,64.803,4.578,67.998,0C71.739,4.703,75.547,9.844,78.948,14.569z"/>
	<path fill-rule="evenodd" clip-rule="evenodd" fill="#53275A" d="M39.05,14.569c4.192,0,8.384,0,12.576,0
		c10.415,26.65,21.21,52.925,31.606,79.594c-4.163-0.637-8.62,0.933-11.75-0.165c-2.952-1.037-3.95-6.732-4.963-9.598
		c-1.385-3.908-2.838-7.582-3.807-10.755c-11.528,0-23.056,0-34.585,0c-1.265,3.071-2.565,6.795-3.971,10.755
		c-1.033,2.907-2.046,8.58-5.13,9.598c-3.176,1.047-7.699-0.436-11.915,0.165C17.777,67.649,28.13,40.825,39.05,14.569z
		 M31.604,64.377c9.046,0,18.092,0,27.139,0c-4.275-12.769-9.664-24.424-13.57-37.563C41.368,40.053,35.944,51.674,31.604,64.377z"
		/>
</g>
</svg>
