<?xml version="1.0" encoding="utf-8"?>
<!-- Generator: Adobe Illustrator 15.0.0, SVG Export Plug-In . SVG Version: 6.00 Build 0)  -->
<!DOCTYPE svg PUBLIC "-//W3C//DTD SVG 1.1//EN" "http://www.w3.org/Graphics/SVG/1.1/DTD/svg11.dtd">
<svg version="1.1" id="Capa_1" xmlns="http://www.w3.org/2000/svg" xmlns:xlink="http://www.w3.org/1999/xlink" x="0px" y="0px"
	 width="96px" height="96px" viewBox="205.725 205.725 96 96" enable-background="new 205.725 205.725 96 96" xml:space="preserve">
<g>
	<g id="share-alt">
		<path fill="#53275A" d="M32.106,235.057c-3.797,0-7.119,1.424-9.492,3.797l-33.699-19.459c0.475-0.949,0.475-2.373,0.475-3.322
			c0-8.069-6.17-14.239-14.238-14.239c-8.069,0-14.239,6.17-14.239,14.239c0,8.068,6.17,14.238,14.239,14.238
			c3.797,0,7.119-1.424,9.492-3.797l33.698,19.46c-0.475,0.949-0.475,2.373-0.475,3.322s0,2.373,0.475,3.322l-33.698,19.934
			c-2.373-2.373-5.695-3.797-9.492-3.797c-7.594,0-13.764,6.17-13.764,13.765c0,7.594,6.17,13.764,13.764,13.764
			c7.594,0,13.764-6.17,13.764-13.764c0-0.949,0-1.899-0.475-3.322l33.698-19.935c2.374,2.373,5.696,3.797,9.493,3.797
			c8.068,0,14.238-6.17,14.238-14.238C45.87,240.752,40.175,235.057,32.106,235.057z"/>
	</g>
</g>
<g>
	<path fill-rule="evenodd" clip-rule="evenodd" fill="#53275A" d="M567.307,208.392c1.935,0,3.869,0,5.803,0
		c24.912,3.376,39.047,17.529,42.433,42.432c0,1.935,0,3.868,0,5.803c-3.382,24.905-17.525,39.05-42.433,42.432
		c-1.934,0-3.868,0-5.803,0c-24.902-3.386-39.055-17.52-42.432-42.432c0-1.935,0-3.868,0-5.803
		C528.254,225.913,542.397,211.77,567.307,208.392z M586.71,262.973c2.128,2.574,3.676,5.213,5.983,5.803
		c3.788,0.967,6.819-1.74,6.528-5.44c-0.135-1.715-1.624-3.219-2.72-4.533c-5.972-7.165-11.107-13.537-16.683-20.31
		c-1.947-2.364-4.541-6.792-7.072-7.797c-5.12-2.032-8.515,4.519-10.88,7.435c-4.342,5.353-8.976,11.275-13.237,16.501
		c-1.636,2.005-5.935,5.754-6.165,8.886c-0.248,3.352,2.232,5.925,5.621,5.621c3.01-0.27,4.307-3.116,6.347-5.621
		c5.56-6.827,10.986-13.676,16.501-19.947C576.336,250.299,581.249,256.367,586.71,262.973z"/>
	<path fill-rule="evenodd" clip-rule="evenodd" fill="#FFFFFF" d="M570.934,243.57c-5.515,6.271-10.941,13.12-16.501,19.947
		c-2.04,2.505-3.337,5.352-6.347,5.621c-3.389,0.304-5.869-2.27-5.621-5.621c0.23-3.132,4.529-6.881,6.165-8.886
		c4.262-5.226,8.896-11.148,13.237-16.501c2.365-2.916,5.76-9.466,10.88-7.435c2.531,1.004,5.125,5.433,7.072,7.797
		c5.575,6.772,10.711,13.145,16.683,20.31c1.096,1.314,2.585,2.818,2.72,4.533c0.291,3.7-2.74,6.407-6.528,5.44
		c-2.308-0.59-3.855-3.229-5.983-5.803C581.249,256.367,576.336,250.299,570.934,243.57z"/>
</g>
<g>
	<g id="arrow-back">
		<path fill="#53275A" d="M124.475,225.256H54.706l32.024-32.025l-8.006-8.006l-45.75,45.75l45.75,45.75l8.006-8.006l-32.024-32.025
			h69.769V225.256z"/>
	</g>
</g>
<g>
	<path fill-rule="evenodd" clip-rule="evenodd" fill="#53275A" d="M125.084,326.231c3.386-3.344,6.883-6.77,10.313-10.2
		c1.111-1.11,2.069-2.423,3.4-3.174c0,13.45,0,26.899,0,40.349c-13.223,0.264-26.937,0.037-40.349,0.112
		c-0.235-0.558,0.523-0.862,0.794-1.133c5.659-5.659,11.634-11.858,17.341-17.567c-4.662-4.574-10.619-8.08-18.247-9.521
		c-8.375-1.58-16.891,0.377-22.895,3.627c-10.573,5.726-20.845,18.95-17.566,36.722c2.707,14.676,12.898,25.058,27.427,27.993
		c8.736,1.766,17.09-0.13,23.121-3.286c6.118-3.203,10.458-7.936,14.054-13.601c4.23,0,8.462,0,12.693,0
		c-3.097,7.738-7.642,13.635-13.487,18.474c-5.783,4.787-13.088,8.449-22.101,9.86c-10.114,1.584-19.821-0.308-27.087-3.74
		c-7.083-3.347-13.163-8.471-17.568-14.394c-4.646-6.248-7.941-13.563-8.839-23.121c-0.964-10.253,1.347-19.152,5.213-26.293
		c7.108-13.129,19.777-23.69,39.214-24.595C106.424,312.003,116.771,318.701,125.084,326.231z"/>
</g>
<path fill-rule="evenodd" clip-rule="evenodd" fill="#53275A" d="M492.846,108.833c18.482,0,36.967,0,55.449,0
	c3.863,0.781,6.207,3.08,6.539,7.393c0,21.136,0,42.274,0,63.409c-0.209,3.77-2.656,6.979-6.352,7.395
	c-2.334,0.261-5.143-0.191-8.246,0c-0.412,2.646,0.307,6.448-0.283,9.099c-0.596,2.672-2.781,4.785-5.592,5.401
	c-1.906,0.42-4.426,0.191-6.92,0.191c-13.912,0-28.428,0-42.368,0c-2.323,0-4.784,0.25-7.014,0
	c-3.726-0.419-6.239-3.561-6.444-7.395c0-21.168,0-42.335,0-63.504c0.435-3.973,2.558-6.927,6.539-7.298
	c2.5-0.233,5.235,0.172,8.151,0c-0.103-5.621-0.46-10.516,2.56-12.985C489.787,109.785,491.444,109.062,492.846,108.833z
	 M549.621,178.972c0.598-1.684,0.285-4.913,0.285-7.487c0-16.003,0-31.085,0-47.012c0-5.466,0.432-9.627-3.604-10.615
	c-1.645-0.404-4.08-0.095-6.254-0.095c-13.043,0-25.584,0-38.293,0c-2.176,0-4.477-0.271-6.445,0
	c-4.039,0.556-4.405,4.668-4.076,9.763c12.553,0,25.465,0,38.102,0c1.867,0,3.807-0.197,5.309,0.189
	c2.473,0.636,4.539,2.685,5.213,5.024c0.492,1.7,0.285,4.054,0.285,6.351c0,15.737,0,31.933,0,47.106
	C544.928,182.494,548.479,182.189,549.621,178.972z M477.018,131.297c-0.76,1.7-0.475,4.914-0.475,7.393c0,15.946,0,31.508,0,47.203
	c0,2.506-0.332,5.879,0.285,7.676c0.469,1.369,1.525,2.339,2.748,2.844c1.504,0.623,4.031,0.38,6.256,0.38
	c13.752,0,26.205,0,39.809,0c2.221,0,5.029,0.259,6.445-0.284c1.223-0.469,2.502-1.61,2.938-3.033
	c0.527-1.715,0.191-5.132,0.191-7.488c0-15.766,0-31.367,0-46.538c0-2.924,0.396-5.626-0.191-7.583
	c-1.121-3.746-4.162-3.508-8.91-3.508c-10.943,0-21.492,0-32.035,0c-4.121,0-8.941-0.359-12.984,0.095
	C478.944,128.695,477.75,129.656,477.018,131.297z"/>
<path fill-rule="evenodd" clip-rule="evenodd" fill="#53275A" d="M488.107,138.311c1.136-0.277,3.329-0.095,4.739-0.095
	c9.266,0,17.762,0,27.486,0c3.008,0,5.277-0.276,5.119,2.559c-0.145,2.596-2.805,2.274-5.971,2.274c-7.883,0-15.145,0-23.223,0
	c-3.845,0-9.786,1.026-9.952-2.274C486.244,139.544,487.014,138.578,488.107,138.311z"/>
<path fill-rule="evenodd" clip-rule="evenodd" fill="#53275A" d="M488.391,152.907c2.482-0.471,6.381-0.094,9.193-0.094
	c7.366,0,14.936,0,22.654,0c2.799,0,5.148-0.162,5.213,2.37c0.074,2.845-2.688,2.559-5.877,2.559c-8.734,0-16.52,0-25.496,0
	c-3.57,0-7.672,0.559-7.772-2.369C486.261,154.057,487.141,153.144,488.391,152.907z"/>
<path fill-rule="evenodd" clip-rule="evenodd" fill="#53275A" d="M488.295,167.599c2.384-0.492,6.356-0.095,9.1-0.095
	c7.275,0,14.908,0,22.465,0c3.129,0,5.604-0.302,5.592,2.465c-0.014,3.252-4.967,2.464-8.531,2.464c-8.029,0-13.911,0-21.988,0
	c-3.646,0-8.492,0.715-8.626-2.369C486.25,168.782,487.114,167.843,488.295,167.599z"/>
<path fill-rule="evenodd" clip-rule="evenodd" fill="#53275A" d="M488.201,182.29c2.348-0.532,6.482-0.096,9.193-0.096
	c7.478,0,14.851,0,22.748,0c2.934,0,5.063-0.242,5.309,2.087c0.311,2.934-2.281,2.749-5.498,2.749c-9.441,0-18.295,0-27.865,0
	c-3.02,0-5.668,0.248-5.782-2.276C486.25,183.51,487.084,182.544,488.201,182.29z"/>
<g>
	<g id="Sun">
		<g>
			<path fill="#53275A" d="M223.446,254.058c0-2.204-1.789-3.993-3.993-3.993h-7.986c-2.204,0-3.993,1.789-3.993,3.993
				s1.789,3.993,3.993,3.993h7.986C221.657,258.051,223.446,256.262,223.446,254.058z M227.439,276.684
				c-1.101,0-2.1,0.447-2.824,1.169l-5.324,5.324c-0.721,0.724-1.168,1.722-1.168,2.823c0,2.205,1.786,3.993,3.993,3.993
				c1.102,0,2.1-0.447,2.822-1.172l5.323-5.323c0.725-0.721,1.172-1.72,1.172-2.821
				C231.432,278.473,229.645,276.684,227.439,276.684z M254.058,223.446c2.207,0,3.993-1.789,3.993-3.993v-7.986
				c0-2.204-1.786-3.993-3.993-3.993c-2.207,0-3.993,1.789-3.993,3.993v7.986C250.065,221.658,251.851,223.446,254.058,223.446z
				 M280.677,231.433c1.102,0,2.1-0.448,2.821-1.169l5.323-5.324c0.725-0.724,1.172-1.722,1.172-2.824
				c0-2.204-1.786-3.993-3.993-3.993c-1.102,0-2.101,0.447-2.824,1.171l-5.323,5.323c-0.722,0.722-1.169,1.72-1.169,2.822
				C276.684,229.644,278.47,231.433,280.677,231.433z M224.615,230.264c0.724,0.721,1.723,1.169,2.824,1.169
				c2.204,0,3.993-1.789,3.993-3.994c0-1.102-0.447-2.1-1.168-2.824l-5.324-5.324c-0.724-0.721-1.722-1.168-2.824-1.168
				c-2.204,0-3.993,1.789-3.993,3.993c0,1.102,0.448,2.1,1.168,2.822L224.615,230.264z M296.648,250.065h-7.985
				c-2.205,0-3.992,1.789-3.992,3.993s1.787,3.993,3.992,3.993h7.985c2.204,0,3.993-1.789,3.993-3.993
				S298.852,250.065,296.648,250.065z M283.5,277.853c-0.724-0.722-1.722-1.169-2.823-1.169c-2.205,0-3.993,1.789-3.993,3.993
				c0,1.102,0.447,2.101,1.169,2.821l5.323,5.323c0.724,0.725,1.723,1.172,2.824,1.172c2.204,0,3.993-1.789,3.993-3.993
				c0-1.102-0.447-2.1-1.169-2.823L283.5,277.853z M254.058,284.67c-2.207,0-3.993,1.789-3.993,3.992v7.985
				c0,2.204,1.786,3.993,3.993,3.993c2.207,0,3.993-1.789,3.993-3.993v-7.985C258.051,286.459,256.265,284.67,254.058,284.67z
				 M254.058,226.108c-15.413,0-27.95,12.537-27.95,27.95c0,15.412,12.538,27.949,27.95,27.949
				c15.412,0,27.949-12.537,27.949-27.949C282.007,238.646,269.47,226.108,254.058,226.108z M254.058,274.022
				c-11.01,0-19.964-8.954-19.964-19.964s8.954-19.964,19.964-19.964c11.009,0,19.964,8.954,19.964,19.964
				C274.022,265.067,265.067,274.022,254.058,274.022z"/>
		</g>
	</g>
</g>
</svg>
