<?xml version="1.0" encoding="utf-8"?>
<!-- Generator: Adobe Illustrator 15.0.0, SVG Export Plug-In . SVG Version: 6.00 Build 0)  -->
<!DOCTYPE svg PUBLIC "-//W3C//DTD SVG 1.1//EN" "http://www.w3.org/Graphics/SVG/1.1/DTD/svg11.dtd">
<svg version="1.1" id="Capa_1" xmlns="http://www.w3.org/2000/svg" xmlns:xlink="http://www.w3.org/1999/xlink" x="0px" y="0px"
	 width="96px" height="96px" viewBox="205.725 205.725 96 96" enable-background="new 205.725 205.725 96 96" xml:space="preserve">
<g>
	<g id="share-alt">
		<path fill="#53275A" d="M32.106,235.057c-3.797,0-7.119,1.424-9.492,3.797l-33.699-19.459c0.475-0.949,0.475-2.373,0.475-3.322
			c0-8.069-6.17-14.239-14.238-14.239c-8.069,0-14.239,6.17-14.239,14.239c0,8.068,6.17,14.238,14.239,14.238
			c3.797,0,7.119-1.424,9.492-3.797l33.698,19.46c-0.475,0.949-0.475,2.373-0.475,3.322s0,2.373,0.475,3.322l-33.698,19.934
			c-2.373-2.373-5.695-3.797-9.492-3.797c-7.594,0-13.764,6.17-13.764,13.765c0,7.594,6.17,13.764,13.764,13.764
			c7.594,0,13.764-6.17,13.764-13.764c0-0.949,0-1.899-0.475-3.322l33.698-19.935c2.374,2.373,5.696,3.797,9.493,3.797
			c8.068,0,14.238-6.17,14.238-14.238C45.87,240.752,40.175,235.057,32.106,235.057z"/>
	</g>
</g>
<g>
	<path fill-rule="evenodd" clip-rule="evenodd" fill="#53275A" d="M567.307,208.392c1.935,0,3.869,0,5.803,0
		c24.912,3.376,39.047,17.529,42.433,42.432c0,1.935,0,3.868,0,5.803c-3.382,24.905-17.525,39.05-42.433,42.432
		c-1.934,0-3.868,0-5.803,0c-24.902-3.386-39.055-17.52-42.432-42.432c0-1.935,0-3.868,0-5.803
		C528.254,225.913,542.397,211.77,567.307,208.392z M586.71,262.973c2.128,2.574,3.676,5.213,5.983,5.803
		c3.788,0.967,6.819-1.74,6.528-5.44c-0.135-1.715-1.624-3.219-2.72-4.533c-5.972-7.165-11.107-13.537-16.683-20.31
		c-1.947-2.364-4.541-6.792-7.072-7.797c-5.12-2.032-8.515,4.519-10.88,7.435c-4.342,5.353-8.976,11.275-13.237,16.501
		c-1.636,2.005-5.935,5.754-6.165,8.886c-0.248,3.352,2.232,5.925,5.621,5.621c3.01-0.27,4.307-3.116,6.347-5.621
		c5.56-6.827,10.986-13.676,16.501-19.947C576.336,250.299,581.249,256.367,586.71,262.973z"/>
	<path fill-rule="evenodd" clip-rule="evenodd" fill="#FFFFFF" d="M570.934,243.57c-5.515,6.271-10.941,13.12-16.501,19.947
		c-2.04,2.505-3.337,5.352-6.347,5.621c-3.389,0.304-5.869-2.27-5.621-5.621c0.23-3.132,4.529-6.881,6.165-8.886
		c4.262-5.226,8.896-11.148,13.237-16.501c2.365-2.916,5.76-9.466,10.88-7.435c2.531,1.004,5.125,5.433,7.072,7.797
		c5.575,6.772,10.711,13.145,16.683,20.31c1.096,1.314,2.585,2.818,2.72,4.533c0.291,3.7-2.74,6.407-6.528,5.44
		c-2.308-0.59-3.855-3.229-5.983-5.803C581.249,256.367,576.336,250.299,570.934,243.57z"/>
</g>
<g>
	<g id="arrow-back">
		<path fill="#53275A" d="M124.475,225.256H54.706l32.024-32.025l-8.006-8.006l-45.75,45.75l45.75,45.75l8.006-8.006l-32.024-32.025
			h69.769V225.256z"/>
	</g>
</g>
<g>
	<path fill-rule="evenodd" clip-rule="evenodd" fill="#53275A" d="M125.084,326.231c3.386-3.344,6.883-6.77,10.313-10.2
		c1.111-1.11,2.069-2.423,3.4-3.174c0,13.45,0,26.899,0,40.349c-13.223,0.264-26.937,0.037-40.349,0.112
		c-0.235-0.558,0.523-0.862,0.794-1.133c5.659-5.659,11.634-11.858,17.341-17.567c-4.662-4.574-10.619-8.08-18.247-9.521
		c-8.375-1.58-16.891,0.377-22.895,3.627c-10.573,5.726-20.845,18.95-17.566,36.722c2.707,14.676,12.898,25.058,27.427,27.993
		c8.736,1.766,17.09-0.13,23.121-3.286c6.118-3.203,10.458-7.936,14.054-13.601c4.23,0,8.462,0,12.693,0
		c-3.097,7.738-7.642,13.635-13.487,18.474c-5.783,4.787-13.088,8.449-22.101,9.86c-10.114,1.584-19.821-0.308-27.087-3.74
		c-7.083-3.347-13.163-8.471-17.568-14.394c-4.646-6.248-7.941-13.563-8.839-23.121c-0.964-10.253,1.347-19.152,5.213-26.293
		c7.108-13.129,19.777-23.69,39.214-24.595C106.424,312.003,116.771,318.701,125.084,326.231z"/>
</g>
<path fill-rule="evenodd" clip-rule="evenodd" fill="#53275A" d="M232.512,206.792c18.483,0,36.966,0,55.449,0
	c3.863,0.781,6.208,3.08,6.539,7.393c0,21.136,0,42.274,0,63.409c-0.208,3.77-2.655,6.979-6.351,7.395
	c-2.335,0.261-5.143-0.191-8.246,0c-0.413,2.646,0.307,6.448-0.283,9.099c-0.596,2.672-2.782,4.785-5.593,5.401
	c-1.905,0.42-4.426,0.191-6.919,0.191c-13.913,0-28.428,0-42.369,0c-2.324,0-4.784,0.25-7.014,0
	c-3.726-0.419-6.24-3.561-6.445-7.395c0-21.168,0-42.335,0-63.504c0.435-3.973,2.558-6.927,6.54-7.298
	c2.499-0.233,5.235,0.172,8.151,0c-0.102-5.621-0.46-10.516,2.56-12.985C229.454,207.744,231.11,207.02,232.512,206.792z
	 M289.287,276.93c0.599-1.684,0.285-4.913,0.285-7.487c0-16.003,0-31.085,0-47.012c0-5.466,0.433-9.627-3.603-10.615
	c-1.646-0.404-4.08-0.095-6.255-0.095c-13.043,0-25.583,0-38.293,0c-2.175,0-4.476-0.271-6.445,0
	c-4.039,0.556-4.405,4.668-4.076,9.763c12.552,0,25.464,0,38.102,0c1.867,0,3.806-0.197,5.309,0.189
	c2.472,0.636,4.538,2.685,5.213,5.024c0.491,1.7,0.285,4.054,0.285,6.351c0,15.737,0,31.933,0,47.106
	C284.595,280.453,288.145,280.148,289.287,276.93z M216.684,229.255c-0.76,1.7-0.474,4.914-0.474,7.393c0,15.946,0,31.508,0,47.203
	c0,2.506-0.333,5.879,0.285,7.676c0.468,1.369,1.526,2.339,2.749,2.844c1.503,0.623,4.031,0.38,6.256,0.38
	c13.752,0,26.205,0,39.809,0c2.221,0,5.029,0.259,6.444-0.284c1.224-0.469,2.502-1.61,2.938-3.033
	c0.526-1.715,0.19-5.132,0.19-7.488c0-15.766,0-31.367,0-46.538c0-2.924,0.396-5.626-0.19-7.583
	c-1.122-3.746-4.163-3.508-8.91-3.508c-10.944,0-21.493,0-32.036,0c-4.12,0-8.941-0.359-12.984,0.095
	C218.61,226.654,217.417,227.614,216.684,229.255z"/>
<path fill-rule="evenodd" clip-rule="evenodd" fill="#53275A" d="M227.773,236.27c1.135-0.277,3.329-0.095,4.739-0.095
	c9.266,0,17.761,0,27.487,0c3.007,0,5.276-0.276,5.119,2.559c-0.145,2.596-2.806,2.274-5.972,2.274c-7.882,0-15.144,0-23.223,0
	c-3.844,0-9.786,1.026-9.952-2.274C225.911,237.502,226.68,236.536,227.773,236.27z"/>
<path fill-rule="evenodd" clip-rule="evenodd" fill="#53275A" d="M228.058,250.866c2.482-0.471,6.38-0.094,9.193-0.094
	c7.366,0,14.935,0,22.653,0c2.799,0,5.148-0.162,5.214,2.37c0.073,2.845-2.688,2.559-5.877,2.559c-8.735,0-16.52,0-25.497,0
	c-3.57,0-7.672,0.559-7.772-2.369C225.927,252.016,226.807,251.103,228.058,250.866z"/>
<path fill-rule="evenodd" clip-rule="evenodd" fill="#53275A" d="M227.962,265.557c2.383-0.492,6.356-0.095,9.1-0.095
	c7.275,0,14.908,0,22.464,0c3.13,0,5.604-0.302,5.593,2.465c-0.014,3.252-4.967,2.464-8.531,2.464c-8.029,0-13.912,0-21.989,0
	c-3.645,0-8.492,0.715-8.625-2.369C225.917,266.741,226.781,265.801,227.962,265.557z"/>
<path fill-rule="evenodd" clip-rule="evenodd" fill="#53275A" d="M227.868,280.249c2.347-0.532,6.482-0.096,9.193-0.096
	c7.477,0,14.85,0,22.748,0c2.933,0,5.063-0.242,5.309,2.087c0.31,2.934-2.282,2.749-5.498,2.749c-9.442,0-18.295,0-27.866,0
	c-3.019,0-5.668,0.248-5.782-2.276C225.917,281.468,226.751,280.502,227.868,280.249z"/>
</svg>
